<svg id="_380_fitness_outline" data-name="#380_fitness_outline" xmlns="http://www.w3.org/2000/svg" viewBox="0 0 400 300" width="406" height="306" class="illustration styles_illustrationTablet__1DWOa"><path d="M292.69,100.46s-3.94-12.1-9-16.89-18.86-6.48-22.52-3.38,0,7,0,7,.28,8.17,3.66,13.52,15.48,4.78,15.48,4.78V142c-9.57-9.18-24.49,3.26-24.49,3.26-8.45-9.29-20.41-1.49-20.41-1.49H164.6s-12-7.8-20.41,1.49c0,0-14.93-12.44-24.5-3.26V105.53s12.11.57,15.49-4.78,3.66-13.52,3.66-13.52,3.66-3.94,0-7-17.46-1.41-22.53,3.38-9,16.89-9,16.89-17.74,40-15.2,59.41c0,0,21.6,23.37,49.8,18l10,17.2,13.8,23.63v19.43l.07,0h68.37l.06,0V218.72l13.8-23.63,10.05-17.2c28.2,5.35,49.8-18,49.8-18C310.43,140.45,292.69,100.46,292.69,100.46Z" fill="#ffc9b0"></path><path d="M234.19,239.18H165.82a1.07,1.07,0,0,1-.41-.08,1.12,1.12,0,0,1-.66-.95V219l-23.36-40c-28.09,4.88-49.81-18.21-50-18.45a1,1,0,0,1-.26-.55c-2.53-19.32,14.28-57.68,15.26-59.9.32-1,4.17-12.45,9.25-17.25s19.68-7,23.87-3.42a5.14,5.14,0,0,1,2,3.67,7,7,0,0,1-1.64,4.52c-.09,1.67-.67,8.73-3.79,13.67s-12.08,5.26-15.27,5.26h-.07v33.32c8.73-6,20.38,1.77,23.4,4,8.13-8,19-2.22,20.79-1.15h70.24c1.83-1.07,12.65-6.88,20.79,1.15,3-2.24,14.67-10.06,23.39-4V106.55c-3.17,0-12.25-.4-15.32-5.26s-3.71-12-3.8-13.67a7.08,7.08,0,0,1-1.64-4.52,5.17,5.17,0,0,1,2-3.67c4.2-3.55,18.69-1.47,23.86,3.42s8.94,16.28,9.26,17.25c1,2.22,17.78,40.58,15.26,59.9a.93.93,0,0,1-.25.55c-.22.24-21.95,23.33-50,18.45l-23.36,40v19.15a1,1,0,0,1-.57.91A1.36,1.36,0,0,1,234.19,239.18Zm-67.44-2h66.5V218.72a1,1,0,0,1,.14-.5l23.85-40.83a1,1,0,0,1,1.05-.48c25.83,4.91,46.34-15.12,48.66-17.49,2.23-19-15-58.16-15.17-58.55a.3.3,0,0,1,0-.1c0-.11-3.92-11.91-8.75-16.47S265,78.24,261.81,81a3.15,3.15,0,0,0-1.27,2.25,5.3,5.3,0,0,0,1.36,3.35,1,1,0,0,1,.26.64c0,.08.31,8,3.51,13,3,4.8,14.47,4.32,14.58,4.32a1,1,0,0,1,.74.27,1,1,0,0,1,.31.72V142a1,1,0,0,1-1.69.73c-8.81-8.45-23,3.18-23.16,3.3a1,1,0,0,1-1.38-.09c-7.77-8.54-18.66-1.63-19.12-1.33a1,1,0,0,1-.55.16H164.6a1,1,0,0,1-.54-.16c-.47-.3-11.37-7.21-19.13,1.33a1,1,0,0,1-1.38.09c-.14-.12-14.36-11.75-23.17-3.3a1,1,0,0,1-1.69-.73V105.53a1,1,0,0,1,.31-.72.93.93,0,0,1,.74-.27c.12,0,11.57.48,14.59-4.32,3.2-5,3.51-12.94,3.51-13a1,1,0,0,1,.27-.65,5.3,5.3,0,0,0,1.35-3.34A3.15,3.15,0,0,0,138.19,81C135,78.24,121.78,79.79,117,84.3s-8.71,16.36-8.75,16.47a.3.3,0,0,1,0,.1c-.17.39-17.39,39.51-15.16,58.55,2.32,2.37,22.82,22.39,48.66,17.49a1,1,0,0,1,1,.48l23.85,40.83a1,1,0,0,1,.14.5ZM307.9,159.87h0Z" fill="#093f68"></path><path d="M189.8,149l0-11,20.56.26,0,11" fill="#ffc9b0"></path><path d="M210.36,150.21h0a1,1,0,0,1-1-1l0-10L190.85,139l0,10a1,1,0,0,1-1,1h0a1,1,0,0,1-1-1l0-11a1,1,0,0,1,.3-.71,1,1,0,0,1,.71-.29l20.56.26a1,1,0,0,1,1,1l0,11A1,1,0,0,1,210.36,150.21Z" fill="#093f68"></path><path d="M169.19,117.38c.9,0-1.24-3.86-1.36-4.13-2.12-5-2.35-11-1.87-16.37s2.33-12.55,8.58-13.7a5.84,5.84,0,0,1-4.88-1.73,17.31,17.31,0,0,1-3-4.4,11,11,0,0,0,8.57-1.42c2.32-1.37,3.43-3.29,5.19-5.17a20.78,20.78,0,0,1,5.9-4c8.44-4.17,18.49-2.69,27.63-.44,3.9,1,7.9,2.11,11,4.65s5.15,6.82,3.92,10.65c4.66.58,7.1,1.36,7.51,6.59.63,8.07-4.46,29.43-4.46,29.43l-5.49-1Z" fill="#725858"></path><path d="M169.19,118.38a1,1,0,0,1-.83-1.57,16.94,16.94,0,0,0-1.25-2.78c-.11-.2-.18-.34-.2-.39-1.89-4.48-2.55-10.15-1.94-16.85s2.63-11.05,6-13.24a8.17,8.17,0,0,1-2-1.37,18,18,0,0,1-3.23-4.65,1,1,0,0,1,.09-1.1,1,1,0,0,1,1.06-.34,10,10,0,0,0,7.78-1.31,13.62,13.62,0,0,0,3.52-3.33c.46-.55.93-1.12,1.45-1.68a22,22,0,0,1,6.19-4.2c8.92-4.41,19.32-2.74,28.31-.52,4,1,8.11,2.15,11.41,4.85,2.89,2.35,5.26,6.43,4.53,10.58,4,.6,6.83,1.79,7.27,7.35.64,8.14-4.28,28.87-4.49,29.74a1,1,0,0,1-1.15.76l-5.39-1-57.11,1.07Zm0-2h0Zm5.37-34.2a1,1,0,0,1,.18,2c-5.55,1-7.28,7.53-7.76,12.81-.58,6.37,0,11.71,1.79,15.89a2.29,2.29,0,0,1,.13.25,17.31,17.31,0,0,1,1.43,3.25l56.07-1,.21,0,4.54.85c1-4.18,4.76-21.31,4.22-28.2-.35-4.47-2.09-5.1-6.63-5.66a1,1,0,0,1-.72-.46,1,1,0,0,1-.11-.84c1.16-3.62-1.06-7.5-3.6-9.57-3-2.43-6.89-3.54-10.63-4.46-8.64-2.13-18.6-3.76-26.94.37a20.2,20.2,0,0,0-5.62,3.78c-.49.53-.93,1.06-1.37,1.59a15.42,15.42,0,0,1-4,3.76,12.66,12.66,0,0,1-7.18,1.89,11.37,11.37,0,0,0,1.82,2.34,4.78,4.78,0,0,0,4,1.47h.19Z" fill="#093f68"></path><ellipse cx="175.05" cy="117.45" rx="7.42" ry="8.62" transform="translate(55.4 291.01) rotate(-89.28)" fill="#ffc9b0"></ellipse><path d="M175.09,125.88H175a10.32,10.32,0,0,1-6.72-2.51,7.87,7.87,0,0,1-2.79-6c.05-4.6,4.34-8.3,9.58-8.3h.14a10.29,10.29,0,0,1,6.71,2.5,7.71,7.71,0,0,1-.15,12A10.25,10.25,0,0,1,175.09,125.88ZM175,111c-4.15,0-7.54,2.82-7.58,6.33a5.9,5.9,0,0,0,2.12,4.52,8.34,8.34,0,0,0,5.41,2,8,8,0,0,0,5.46-1.87,5.71,5.71,0,0,0,.12-9,8.26,8.26,0,0,0-5.42-2Z" fill="#093f68"></path><ellipse cx="225.28" cy="118.08" rx="7.42" ry="8.62" transform="translate(104.37 341.86) rotate(-89.28)" fill="#ffc9b0"></ellipse><path d="M225.32,126.51h-.15a10.29,10.29,0,0,1-6.71-2.5,7.89,7.89,0,0,1-2.79-6.05c.05-4.6,4.34-8.3,9.58-8.3h.14c5.3.07,9.57,3.9,9.51,8.55h0a7.91,7.91,0,0,1-3,6A10.3,10.3,0,0,1,225.32,126.51Zm-.07-14.85c-4.15,0-7.54,2.82-7.58,6.33a5.91,5.91,0,0,0,2.11,4.52,8.36,8.36,0,0,0,5.42,2,8.19,8.19,0,0,0,5.46-1.86,5.94,5.94,0,0,0,2.24-4.47h0c0-3.54-3.34-6.47-7.54-6.52Z" fill="#093f68"></path><path d="M200.09,142c-21,0-25.84-12-25.66-26.31,0-4-.76-16.85.48-18.84,1.46-2.32,4.23-3.72,6.69-4.7s5-1.75,7.54-1.28a.89.89,0,0,1,.61.29c.2.3,0,.69-.17,1a24.88,24.88,0,0,1-5.32,6.07,23.83,23.83,0,0,0,11.89-2.1,52.15,52.15,0,0,0,10.37-6.37,14.31,14.31,0,0,1-6.73,12.1,21.61,21.61,0,0,0,17.27-6.24c1.12-1.13,2.18-2.44,3.67-3,7.23-2.65,5.86,8.72,5.82,12.33l-.15,11.39C226.22,130.66,221.1,142,200.09,142Z" fill="#ffc9b0"></path><path d="M200.09,143c-9.19,0-15.81-2.19-20.26-6.69s-6.52-11.23-6.4-20.64c0-1,0-2.65-.08-4.53-.21-7.42-.29-13.22.72-14.82,1.68-2.68,4.89-4.19,7.16-5.09s5.25-1.87,8.09-1.35a1.91,1.91,0,0,1,1.25.71,1.79,1.79,0,0,1-.14,2.09,25.86,25.86,0,0,1-3.69,4.64,24.28,24.28,0,0,0,9-2.12,51.21,51.21,0,0,0,10.17-6.25,1,1,0,0,1,1.6.79,15.34,15.34,0,0,1-4.88,11.19,20.86,20.86,0,0,0,13.71-6c.17-.18.35-.36.52-.55a9.66,9.66,0,0,1,3.52-2.68c1.91-.7,3.5-.6,4.73.3,2.88,2.11,2.63,8,2.48,11.57,0,.54,0,1,0,1.41l-.15,11.39C227.26,127.76,224.27,143,200.09,143ZM187.61,91.7A15.92,15.92,0,0,0,182,93.05c-2,.8-4.84,2.12-6.21,4.3-.76,1.22-.53,9.65-.41,13.7.05,1.91.1,3.56.08,4.62-.11,8.84,1.8,15.13,5.83,19.21s10.2,6.09,18.83,6.09c22.16,0,25.17-13.18,25.31-24.67l.15-11.4c0-.4,0-.9,0-1.47.12-2.93.36-8.39-1.66-9.87a3,3,0,0,0-2.86,0,7.94,7.94,0,0,0-2.76,2.18l-.55.57a22.48,22.48,0,0,1-18.08,6.53,1,1,0,0,1-.42-1.85,13.32,13.32,0,0,0,6.09-9.14A48.1,48.1,0,0,1,196.54,97a24.71,24.71,0,0,1-12.39,2.17,1,1,0,0,1-.53-1.76,23.85,23.85,0,0,0,5-5.65A6.77,6.77,0,0,0,187.61,91.7Z" fill="#093f68"></path><circle cx="190.84" cy="112.08" r="2.41" fill="#093f68"></circle><circle cx="213.25" cy="112.36" r="2.41" fill="#093f68"></circle><path d="M202.58,123.18A15.49,15.49,0,0,1,200,123a1,1,0,1,1,.38-2,11.76,11.76,0,0,0,3.28.11,17.89,17.89,0,0,0-1.94-5.39,1,1,0,1,1,1.78-.9c1.05,2.06,2.69,5.75,2,7.32a1.54,1.54,0,0,1-1.05.86A8.3,8.3,0,0,1,202.58,123.18Z" fill="#093f68"></path><path d="M196.65,106.08h-.26L185,104.64a2,2,0,1,1,.5-4l11.38,1.43a2,2,0,0,1-.24,4Z" fill="#093f68"></path><path d="M209.81,106.17a2,2,0,0,1,0-4l11.48-.06h0a2,2,0,0,1,0,4l-11.47.06Z" fill="#093f68"></path><path d="M205.84,132.29c-2.76,0-8.41-.82-14.59-6.46a1,1,0,0,1-.07-1.41,1,1,0,0,1,1.42-.07c7.73,7.06,14.56,5.85,14.62,5.84a1,1,0,0,1,1.17.79,1,1,0,0,1-.78,1.17A9.22,9.22,0,0,1,205.84,132.29Z" fill="#093f68"></path><path d="M219.49,94.27a1,1,0,0,1-.33-1.94,13.27,13.27,0,0,0,6.09-5.6,1,1,0,1,1,1.72,1,14.94,14.94,0,0,1-7.15,6.47A1.26,1.26,0,0,1,219.49,94.27Z" fill="#093f68"></path><path d="M165.75,238.15l.07,0h68.37l.06,0V218.72l13.8-23.63c-4-3.09-13.91-11.49-15.47-20.86-2-11.82.84-30.37.84-30.37l-.3-.12h-6.75C224.58,157.63,219,169,210.2,175.36c-2.48,1.8-4.93,2.92-10.2,2.92s-7.73-1.12-10.2-2.92c-8.75-6.37-14.38-17.73-16.17-31.62h-6.76l-.3.12s2.82,18.55.85,30.37C165.86,183.6,156,192,152,195.09l13.8,23.63Z" fill="#68e1fd"></path><path d="M234.19,239.18H165.82a1.07,1.07,0,0,1-.41-.08,1.12,1.12,0,0,1-.66-.95V219l-13.66-23.4a1,1,0,0,1,.25-1.3c4-3.09,13.6-11.25,15.09-20.23,1.93-11.53-.82-29.87-.85-30.06a1,1,0,0,1,.62-1.07l.3-.12a1,1,0,0,1,.37-.08h6.76a1,1,0,0,1,1,.88c1.79,13.85,7.39,24.83,15.77,30.94,2.43,1.77,4.68,2.72,9.61,2.72s7.17-.95,9.61-2.73c8.39-6.1,14-17.08,15.77-30.93a1,1,0,0,1,1-.88h6.75a.91.91,0,0,1,.37.08l.3.12a1,1,0,0,1,.62,1.07c0,.19-2.76,18.53-.84,30.06,1.49,9,11.05,17.14,15.09,20.23a1,1,0,0,1,.25,1.3L235.25,219v19.15a1,1,0,0,1-.57.91A1.36,1.36,0,0,1,234.19,239.18Zm-68.44-1Zm1-1h66.5V218.72a1,1,0,0,1,.14-.5l13.36-22.87c-4.54-3.58-13.63-11.76-15.16-20.95-1.72-10.38.13-25.55.7-29.66h-5c-2,14-7.81,25.13-16.46,31.43-2.72,2-5.35,3.11-10.79,3.11s-8.08-1.14-10.79-3.11c-8.65-6.3-14.48-17.43-16.45-31.43h-5c.56,4.11,2.43,19.28.7,29.66-1.53,9.19-10.61,17.37-15.15,20.95l13.35,22.87a1,1,0,0,1,.14.5Z" fill="#093f68"></path><path d="M142.63,177.66a17.13,17.13,0,0,1-10.4-3.09,13.6,13.6,0,0,1-4.66-5.82,1,1,0,0,1,1.89-.67h0c.16.45,4.17,10.93,20.57,6.5a1,1,0,0,1,.52,1.94A30.47,30.47,0,0,1,142.63,177.66Z" fill="#093f68"></path><path d="M252.87,177.66a30.66,30.66,0,0,1-7.91-1.14,1,1,0,0,1,.52-1.94c16.4,4.43,20.41-6.05,20.58-6.5a1,1,0,0,1,1.27-.6,1,1,0,0,1,.61,1.27C267.9,168.86,264.62,177.66,252.87,177.66Z" fill="#093f68"></path></svg>