<svg xmlns="http://www.w3.org/2000/svg" viewBox="0 0 400 300" width="406" height="306" class="illustration styles_illustrationTablet__1DWOa"><g id="_207_camera_outline" data-name="#207_camera_outline"><path d="M315.81,113v86.26a12.13,12.13,0,0,1-12.14,12.14H155.06a12.15,12.15,0,0,1-12.15-12.14V113a12.15,12.15,0,0,1,12.15-12.14H303.67A12.13,12.13,0,0,1,315.81,113Z" fill="#68e1fd"></path><path d="M303.67,212.43H155.06a13.16,13.16,0,0,1-13.15-13.14V113a13.17,13.17,0,0,1,13.15-13.15H303.67A13.16,13.16,0,0,1,316.81,113v86.26A13.15,13.15,0,0,1,303.67,212.43ZM155.06,101.88A11.16,11.16,0,0,0,143.91,113v86.26a11.16,11.16,0,0,0,11.15,11.14H303.67a11.16,11.16,0,0,0,11.14-11.14V113a11.16,11.16,0,0,0-11.14-11.15Z" fill="#093f68"></path><path d="M315.81,113v18.71H142.91V113a12.15,12.15,0,0,1,12.15-12.14H303.67A12.13,12.13,0,0,1,315.81,113Z" fill="#fff"></path><path d="M315.81,132.74H142.91a1,1,0,0,1-1-1V113a13.17,13.17,0,0,1,13.15-13.15H303.67A13.16,13.16,0,0,1,316.81,113v18.71A1,1,0,0,1,315.81,132.74Zm-171.9-2h170.9V113a11.16,11.16,0,0,0-11.14-11.15H155.06A11.16,11.16,0,0,0,143.91,113Z" fill="#093f68"></path><circle cx="232.79" cy="160.87" r="41.99" fill="#68e1fd"></circle><path d="M232.79,203.87a43,43,0,1,1,43-43A43,43,0,0,1,232.79,203.87Zm0-84a41,41,0,1,0,41,41A41,41,0,0,0,232.79,119.88Z" fill="#093f68"></path><circle cx="232.79" cy="160.87" r="33.73" fill="#093f68"></circle><path d="M232.79,195.61a34.74,34.74,0,1,1,34.74-34.74A34.78,34.78,0,0,1,232.79,195.61Zm0-67.47a32.74,32.74,0,1,0,32.74,32.73A32.76,32.76,0,0,0,232.79,128.14Z" fill="#093f68"></path><path d="M237.75,137.76a.71.71,0,0,1-.2,0,24,24,0,0,0-7.56-.31,1,1,0,1,1-.23-2,25.92,25.92,0,0,1,8.19.35,1,1,0,0,1-.2,2Z" fill="#fff"></path><path d="M208.19,161.87a1,1,0,0,1-1-1,25.69,25.69,0,0,1,16.9-24.09,1,1,0,0,1,1.28.6,1,1,0,0,1-.6,1.29,23.66,23.66,0,0,0-15.58,22.2A1,1,0,0,1,208.19,161.87Z" fill="#fff"></path><rect x="168.3" y="93.81" width="22.5" height="7.07" fill="#093f68"></rect><path d="M190.8,101.88H168.3a1,1,0,0,1-1-1V93.81a1,1,0,0,1,1-1h22.5a1,1,0,0,1,1,1v7.07A1,1,0,0,1,190.8,101.88Zm-21.5-2h20.5V94.81H169.3Z" fill="#093f68"></path><path d="M213.84,85.78h37.48a6.39,6.39,0,0,1,6,4.1l4.21,11H203.65l4.22-11A6.38,6.38,0,0,1,213.84,85.78Z" fill="#68e1fd"></path><path d="M261.5,101.88H203.65a1,1,0,0,1-.82-.43,1,1,0,0,1-.11-.92l4.21-11a7.42,7.42,0,0,1,6.91-4.75h37.48a7.41,7.41,0,0,1,6.9,4.75l4.22,11a1,1,0,0,1-.11.92A1,1,0,0,1,261.5,101.88Zm-56.39-2h54.94l-3.69-9.64a5.43,5.43,0,0,0-5-3.46H213.84a5.42,5.42,0,0,0-5,3.46Z" fill="#093f68"></path><rect x="278.32" y="112.63" width="18.43" height="8.39" rx="3.11" fill="#ffbc0e"></rect><path d="M293.63,122h-12.2a4.12,4.12,0,0,1-4.11-4.11v-2.16a4.12,4.12,0,0,1,4.11-4.12h12.2a4.13,4.13,0,0,1,4.12,4.12v2.16A4.12,4.12,0,0,1,293.63,122Zm-12.2-8.39a2.12,2.12,0,0,0-2.11,2.12v2.16a2.12,2.12,0,0,0,2.11,2.11h12.2a2.12,2.12,0,0,0,2.12-2.11v-2.16a2.12,2.12,0,0,0-2.12-2.12Z" fill="#093f68"></path><path d="M98.45,148.72s24.23-62.23,32.28-66.23,47.9-10.2,56.45-1.66-21.32,12.78-40.92,17.26l-15.15,44.67Z" fill="#ffc9b0"></path><path d="M98.45,149.72a1,1,0,0,1-.93-1.36C100,142,122.13,85.65,130.28,81.6c8.34-4.15,48.68-10.4,57.61-1.48,1.55,1.55,2.1,3.12,1.64,4.67-1.54,5.18-14,8.15-32.92,12.1-3.37.7-6.57,1.37-9.58,2l-15,44.14a1,1,0,0,1-.76.66l-32.66,6Zm69.77-72.18c-2.87,0-6,.14-9.38.41-12.37,1-24,3.61-27.67,5.44-6.12,3-23.94,45.73-31.13,64l30.31-5.53,15-44.11a1,1,0,0,1,.72-.65c3.19-.73,6.58-1.44,10.16-2.19,13.41-2.8,30.1-6.29,31.41-10.71.09-.3.36-1.19-1.13-2.68C183.86,78.92,177.39,77.54,168.22,77.54Z" fill="#093f68"></path><path d="M167.05,127.14c-6.19-3.3-69.65-1.78-74.6,8.13-3.9,7.8-15.47,64.44-20.22,88.19h61.2a25.61,25.61,0,0,0,4.82-4.84c4.53-5.93,4.94-18.25,5-21.92.17,1.88,1.28,5.85,7.42,8.3,7.56,3,8.54-15.05,8.65-18.12,0,2.26.33,12.48,9.5,13.58,10.32,1.24,6-26.45,6-26.45s9.28,11.19,15.47,3.35S173.24,130.44,167.05,127.14Z" fill="#ffc9b0"></path><path d="M133.43,224.46H72.23a1,1,0,0,1-1-1.2c4.79-24,16.35-80.54,20.3-88.44,1-1.94,3.63-3.58,8.12-5,17.73-5.65,62.13-6.6,67.85-3.56,5.25,2.81,21.3,28.83,24.26,43,.87,4.12.62,7-.76,8.72a7.45,7.45,0,0,1-5.92,3.16H185c-3.45,0-6.79-2.41-8.86-4.29.64,5.85,1.47,18.55-2.81,23a5.32,5.32,0,0,1-4.68,1.63,10.72,10.72,0,0,1-9.08-7.17c-.71,4.51-2.11,9.51-4.89,11.32a4.64,4.64,0,0,1-4.43.32,13.83,13.83,0,0,1-6.24-4.51c-.38,5.4-1.54,13.31-5,17.81a26.18,26.18,0,0,1-5,5A1,1,0,0,1,133.43,224.46Zm-60-2h59.64a24.54,24.54,0,0,0,4.36-4.45c4.35-5.68,4.74-17.75,4.76-21.31a1,1,0,0,1,.95-1,1,1,0,0,1,1,.91c.17,1.84,1.27,5.25,6.8,7.46a2.62,2.62,0,0,0,2.6-.14c3.07-2,4.44-10.45,4.68-17.08a1,1,0,0,1,2,.05c-.15,10.69,6.56,12.32,8.62,12.57a3.36,3.36,0,0,0,3-1c4-4.16,2.72-18.94,1.89-24.29a1,1,0,0,1,1.75-.79c.05.06,4.86,5.77,9.47,5.77h.07a5.56,5.56,0,0,0,4.38-2.4c.95-1.21,1.08-3.66.36-7.07-3-14.26-18.86-39.31-23.24-41.65-4.78-2.55-48.32-2-66.3,3.7-4.86,1.54-6.46,3-6.94,4C89.56,143.27,78.36,197.94,73.45,222.46Z" fill="#093f68"></path><path d="M175.09,176.39s-1-23.93-3.86-28.06-37.16-10.09-37.16-10.09" fill="#ffc9b0"></path><path d="M175.08,177.39a1,1,0,0,1-1-1c-.28-6.57-1.47-24.34-3.68-27.52-1.91-2.76-23.41-7.41-36.51-9.69a1,1,0,1,1,.34-2c5.8,1,34.86,6.26,37.81,10.51s3.93,26.11,4,28.59a1,1,0,0,1-1,1Z" fill="#093f68"></path><path d="M159.29,186.43s1.93-21-1.65-24.34-30.31-5.93-30.31-5.93" fill="#ffc9b0"></path><path d="M159.29,187.43h-.09a1,1,0,0,1-.9-1.09c.72-7.94,1-21.36-1.34-23.52s-19.52-4.66-29.73-5.67a1,1,0,0,1-.9-1.09,1,1,0,0,1,1.09-.9c2.78.28,27.18,2.76,30.9,6.19s2.3,21.58,2,25.18A1,1,0,0,1,159.29,187.43Z" fill="#093f68"></path><path d="M142.91,199.29s1-19,.29-20.42-12.48-.61-12.48-.61S145,205.55,126,215.73" fill="#ffc9b0"></path><path d="M126,216.73a1,1,0,0,1-.48-1.88c17.91-9.6,4.44-35.86,4.31-36.13a1,1,0,0,1,0-.95,1,1,0,0,1,.81-.51c12.45-.81,13.16.62,13.43,1.16.7,1.4.19,13.71-.18,20.92a1,1,0,1,1-2-.1c.38-7.27.73-17.91.41-19.8-1.11-.45-5.72-.48-10.06-.27,2.61,5.79,11.33,28.27-5.78,37.44A1,1,0,0,1,126,216.73Zm16.45-37.22Z" fill="#093f68"></path></g></svg>